<?xml version="1.0" standalone="no"?>
<!DOCTYPE svg PUBLIC "-//W3C//DTD SVG 20010904//EN"
 "http://www.w3.org/TR/2001/REC-SVG-20010904/DTD/svg10.dtd">
<svg version="1.0" xmlns="http://www.w3.org/2000/svg"
 width="1280.000000pt" height="1256.000000pt" viewBox="0 0 1280.000000 1256.000000"
 preserveAspectRatio="xMidYMid meet">
<metadata>
Created by potrace 1.15, written by Peter Selinger 2001-2017
</metadata>
<g transform="translate(0.000000,1256.000000) scale(0.100000,-0.100000)"
fill="#000000" stroke="none">
<path d="M6200 12540 c-398 -53 -743 -135 -1113 -264 -218 -76 -383 -146 -621
-264 -115 -56 -277 -128 -360 -159 -1163 -430 -2187 -1191 -2913 -2164 -604
-810 -990 -1737 -1132 -2714 -44 -305 -55 -475 -55 -845 0 -453 26 -740 105
-1135 217 -1090 731 -2093 1501 -2925 1676 -1812 4288 -2510 6698 -1790 914
273 1748 740 2465 1380 213 190 513 506 701 740 425 527 782 1172 1002 1813
409 1186 427 2476 53 3673 -179 571 -463 1148 -812 1644 -357 510 -804 978
-1304 1366 -544 423 -1212 782 -1875 1010 -72 24 -193 75 -270 114 -535 268
-1141 449 -1760 525 -147 18 -139 18 -310 -5z m514 -776 c293 -53 657 -161
942 -280 1071 -445 1945 -1265 2454 -2299 252 -514 404 -1045 466 -1632 24
-219 24 -709 1 -923 -27 -241 -101 -657 -121 -678 -3 -3 -6 28 -6 69 0 89 -22
322 -45 474 -199 1347 -914 2541 -2015 3366 -541 406 -1192 709 -1879 876
-131 32 -141 32 -272 0 -1298 -315 -2397 -1089 -3121 -2197 -478 -732 -774
-1620 -815 -2447 -3 -73 -9 -133 -12 -133 -6 0 -47 182 -71 319 -83 458 -90
1015 -19 1500 127 873 490 1678 1068 2371 214 257 557 577 841 783 648 471
1429 782 2200 875 72 8 180 -3 404 -44z m-193 -2143 c785 -232 1473 -649 1975
-1198 577 -631 906 -1356 1011 -2223 24 -203 24 -687 0 -890 -48 -394 -140
-756 -278 -1084 -43 -102 -143 -312 -155 -325 -2 -3 -21 15 -41 40 -223 265
-569 558 -866 735 -509 302 -1034 456 -1612 471 -836 22 -1603 -211 -2280
-692 -176 -126 -304 -234 -469 -397 -77 -76 -140 -137 -141 -136 -16 18 -125
255 -168 363 -176 448 -261 869 -274 1365 -17 676 118 1296 411 1880 499 994
1421 1743 2563 2081 76 22 143 42 148 44 23 8 49 3 176 -34z m4399 -261 c569
-712 948 -1582 1080 -2480 67 -456 69 -1026 5 -1468 -220 -1519 -1087 -2856
-2415 -3724 -826 -541 -1776 -859 -2770 -927 -214 -15 -420 -20 -420 -11 0 4
35 15 78 24 126 27 448 120 587 171 959 347 1780 956 2385 1770 114 153 243
348 326 493 35 61 90 137 133 185 672 741 1129 1639 1321 2597 74 370 99 601
107 985 9 479 -25 843 -123 1295 -84 384 -221 792 -384 1135 -33 70 -60 131
-60 134 0 7 20 -16 150 -179z m-9035 -26 c-203 -452 -352 -970 -424 -1469 -61
-417 -69 -976 -21 -1390 74 -633 242 -1209 519 -1781 229 -469 498 -871 852
-1269 72 -80 121 -148 180 -250 227 -389 461 -689 803 -1031 378 -377 717
-632 1182 -888 364 -200 884 -398 1269 -481 44 -10 84 -21 88 -25 18 -16 -420
11 -668 41 -941 114 -1859 468 -2632 1015 -1189 842 -1986 2090 -2217 3475
-88 524 -93 1086 -15 1609 113 754 389 1467 822 2120 75 112 280 390 285 385
2 -1 -9 -29 -23 -61z m4840 -5229 c351 -39 614 -106 914 -232 387 -162 689
-345 955 -580 l47 -42 -72 -83 c-513 -588 -1241 -1043 -2036 -1273 l-157 -46
-146 42 c-751 214 -1452 634 -1955 1174 l-108 116 64 65 c246 251 605 489 969
644 288 122 538 181 950 223 98 10 458 5 575 -8z"/>
<path d="M6265 9448 c-557 -145 -1175 -453 -1655 -827 -137 -107 -313 -301
-497 -548 -380 -510 -615 -1098 -683 -1708 -61 -549 30 -1173 255 -1735 40
-101 142 -310 150 -310 3 0 46 42 96 94 178 187 442 396 671 532 428 254 880
409 1403 480 180 25 569 25 750 0 809 -109 1486 -432 2029 -968 77 -75 143
-135 148 -132 15 10 114 215 161 334 129 328 211 668 248 1020 17 167 14 527
-6 695 -82 697 -358 1322 -839 1900 -197 237 -328 354 -611 542 -450 298 -969
533 -1410 636 l-100 23 -110 -28z"/>
</g>
</svg>
